<?xml version="1.0" encoding="UTF-8" standalone="no"?>
<!-- Created with Inkscape (http://www.inkscape.org/) -->

<svg
   width="182.72134mm"
   height="254.70445mm"
   viewBox="0 0 182.72134 254.70445"
   version="1.1"
   id="svg1"
   xml:space="preserve"
   xmlns="http://www.w3.org/2000/svg"
   xmlns:svg="http://www.w3.org/2000/svg"><defs
     id="defs1" /><g
     id="layer1"
     transform="translate(-13.134332,-18.646635)"><path
       style="fill:#000000"
       d="m 80.267849,273.03576 c -5.02114,-1.0921 -9.02454,-5.0519 -9.51898,-9.41531 -0.092,-0.81153 -0.0289,-4.562 0.14004,-8.33438 1.29705,-28.95518 2.41734,-52.24945 2.5494,-53.00975 0.39171,-2.2552 2.09299,-4.5591 4.13636,-5.60155 1.05303,-0.53722 4.39466,-1.23858 11.25521,-2.36229 3.50771,-0.57455 5.62637,-1.03506 5.62637,-1.22294 0,-0.0601 -0.25302,-0.84962 -0.56228,-1.75453 -0.35492,-1.03854 -0.57446,-2.3771 -0.59531,-3.62968 l -0.033,-1.98437 -8.22131,-8.46667 c -4.52172,-4.65666 -12.36847,-12.75292 -17.43722,-17.99167 -9.21869,-9.52786 -16.07196,-16.57691 -40.6196,-41.77993 -7.20328,-7.3956 -13.26582,-13.76028 -13.47231,-14.14372 -0.54465,-1.0114 -0.49461,-9.23101 0.0824,-13.52948 2.82408,-21.03943 14.83466,-40.827898 32.44365,-53.453748 7.16689,-5.13874 15.8292,-9.488746 24.20223,-12.153773 5.36576,-1.707853 15.45183,-3.83124 15.92949,-3.353583 0.0785,0.07849 -0.43667,0.753121 -1.1448,1.499178 -7.93179,8.356657 -15.81108,25.694037 -19.77716,43.517136 -2.30246,10.347 -3.69461,22.82212 -2.77264,24.84564 0.39871,0.87507 1.87749,1.56693 2.87901,1.34696 1.45167,-0.31884 2.01768,-1.37479 2.22114,-4.1437 0.49601,-6.75025 1.73481,-15.11407 3.20699,-21.65202 4.4211,-19.634094 13.56111,-37.433901 22.49572,-43.809507 1.99007,-1.420079 5.01738,-2.870552 7.117631,-3.410264 2.05341,-0.527674 6.44021,-0.526722 8.48778,0.0018 7.78749,2.010276 14.6969,9.410129 21.01982,22.511844 6.18676,12.819573 10.55768,29.999437 11.53636,45.343587 0.2208,3.46175 0.56921,4.38542 1.85715,4.92356 1.14553,0.47863 1.92102,0.33651 2.93595,-0.53806 0.73095,-0.62987 0.73936,-0.67185 0.67568,-3.37155 -0.119,-5.04515 -1.27381,-14.07824 -2.61156,-20.42803 C 141.968,56.415614 138.31819,45.900972 133.57675,36.592469 130.5717,30.692885 128.09406,27.00752 123.66289,21.846111 l -0.99249,-1.156048 1.70181,0.188258 c 2.14535,0.237323 7.31441,1.297353 10.46054,2.145168 11.1393,3.001798 22.45094,8.694067 31.46009,15.831417 3.20486,2.538995 9.6842,8.979486 12.13355,12.060795 6.14583,7.731519 10.60799,15.931829 13.67733,25.135419 2.61429,7.83909 3.77063,14.70851 3.75173,22.28775 -0.01,3.83764 -0.0763,4.53275 -0.5004,5.21086 -0.26915,0.43037 -3.52663,3.91447 -7.23886,7.74246 -17.12288,17.65685 -45.38013,47.09614 -67.79686,70.63291 l -4.43177,4.6532 v 1.39321 1.3932 l 1.12448,-0.16403 c 0.61846,-0.0902 4.63682,-0.76096 8.92969,-1.49054 9.54481,-1.62215 10.0578,-1.64164 11.27125,-0.42819 0.81075,0.81075 0.89958,1.04719 0.89958,2.39439 0,1.67511 -0.44578,2.74391 -1.4856,3.56183 -0.91726,0.72151 -1.86586,0.69816 -3.33326,-0.0821 l -1.19351,-0.6346 -2.88079,0.49796 c -6.78653,1.17308 -20.90921,3.70512 -34.763081,6.23264 -5.16599,0.94249 -10.32386,1.877 -11.46192,2.07667 -2.67669,0.46964 -3.35475,0.90626 -3.35475,2.16022 0,1.85499 2.72337,3.53087 5.7378,3.53087 1.11428,0 16.986111,-2.99392 28.790321,-5.43074 8.35882,-1.72557 26.41152,-5.1524 27.13888,-5.15161 1.25424,0.001 2.58037,0.88173 3.06102,2.03208 0.30813,0.73746 0.36493,1.52658 0.24241,3.36765 -0.19818,2.9779 -1.31565,22.11483 -1.86307,31.90553 -1.1675,20.88079 -1.49251,25.88346 -1.74069,26.79345 -0.31667,1.16113 -1.57895,2.69367 -2.69323,3.26989 -0.42859,0.22163 -3.77443,0.9236 -7.4352,1.55994 -3.66077,0.63634 -8.38236,1.457 -10.49241,1.82368 -2.11005,0.36669 -6.93208,1.20061 -10.71563,1.85315 -3.78354,0.65254 -10.998461,1.90665 -16.033171,2.78691 -9.59109,1.6769 -10.73068,1.7797 -13.36877,1.20591 z m 2.74802,-6.28615 c 0.14634,-0.18191 0.4698,-4.02167 0.71881,-8.53282 0.249,-4.51114 0.89908,-16.29833 1.44462,-26.19375 0.54555,-9.89541 0.93791,-18.14152 0.87191,-18.32468 -0.13537,-0.37569 -0.59892,-0.49463 -2.76814,-0.71026 -1.41516,-0.14067 -1.52487,-0.11102 -1.65095,0.44629 -0.0743,0.32834 -0.25602,2.97824 -0.40386,5.88865 -0.24785,4.87914 -1.46716,28.02048 -2.13215,40.4663 -0.15507,2.90219 -0.21887,5.52803 -0.14177,5.83521 0.27399,1.09164 3.39327,1.9557 4.06153,1.12506 z m 22.591071,-75.58012 c 1.54898,-0.26838 2.96011,-0.57682 3.13585,-0.68544 0.17575,-0.10862 0.48598,-0.59584 0.68942,-1.08273 2.03382,-4.86762 -4.23592,-9.13529 -8.24699,-5.61353 -2.155721,1.89275 -2.456351,4.75502 -0.73799,7.0264 0.77782,1.02815 1.13453,1.05271 5.15971,0.3553 z m 9.10125,-11.99697 c 1.29447,-1.45717 20.22117,-21.27873 29.11335,-30.48985 3.79481,-3.93092 11.11097,-11.55244 16.25811,-16.93671 5.14715,-5.38427 13.82679,-14.42139 19.28808,-20.08249 9.33655,-9.67813 9.92962,-10.35008 9.92962,-11.2501 0,-2.626 -5.52337,-7.21655 -11.14454,-9.26238 -3.51246,-1.27837 -6.15792,-1.71778 -10.40697,-1.7286 -5.53885,-0.0141 -9.56951,0.94326 -14.68438,3.48785 -3.77482,1.87792 -8.58201,5.62901 -9.01766,7.03655 -0.37594,1.21458 -11.21294,29.39998 -17.97419,46.74813 -14.34962,36.81854 -13.14113,33.60208 -12.62499,33.60208 0.14555,0 0.71416,-0.50602 1.26357,-1.12448 z m -20.142221,-2.99268 c -0.66073,-1.73738 -1.7782,-4.64716 -2.48327,-6.46617 -0.70506,-1.81901 -2.55105,-6.58151 -4.1022,-10.58334 -1.55115,-4.00182 -4.23366,-10.90744 -5.96113,-15.34583 -1.72748,-4.43839 -4.03058,-10.39151 -5.11802,-13.22917 -1.08743,-2.83765 -4.24911,-11.05297 -7.02594,-18.25625 l -5.04879,-13.09687 -1.52321,-1.39129 c -5.37424,-4.90877 -12.88088,-8.05128 -20.15728,-8.43845 -8.07087,-0.42945 -16.05415,2.28301 -20.90669,7.10341 -1.83821,1.82603 -2.39349,2.75941 -2.3947,4.02525 -9.4e-4,0.98339 0.22387,1.26356 4.56307,5.68672 2.51024,2.55881 4.62665,4.71273 4.70314,4.78649 0.62944,0.607 22.35291,22.97475 31.86659,32.81169 6.54353,6.76588 14.28703,14.74238 17.20777,17.72555 2.92074,2.98318 8.03268,8.25354 11.35986,11.71191 3.32719,3.45837 6.08829,6.24908 6.13578,6.20159 0.0475,-0.0475 -0.45424,-1.50785 -1.11498,-3.24524 z m 10.076741,0.28322 c 0.7276,0 1.79917,0.0929 2.38125,0.20642 l 1.05833,0.20642 1.69004,-4.44101 c 0.92951,-2.44256 3.62563,-9.44164 5.99137,-15.55352 2.36574,-6.11187 6.76593,-17.48234 9.77819,-25.2677 3.01226,-7.78537 5.75587,-14.86959 6.0969,-15.74271 2.84313,-7.27898 6.38904,-16.73339 6.60286,-17.60513 0.0906,-0.36948 0.0346,-1.0142 -0.12452,-1.4327 -0.44119,-1.16043 -3.45479,-3.91323 -6.54913,-5.98237 -12.07007,-8.07109 -28.58901,-10.1407 -42.932581,-5.3789 -3.75955,1.2481 -9.15693,3.9234 -11.97906,5.93761 -3.12885,2.23313 -5.74803,5.01212 -5.74803,6.09877 0,1.00542 2.07405,6.51388 15.53116,41.24918 1.38125,3.56526 3.26249,8.44682 4.18054,10.84791 0.91805,2.4011 2.52266,6.56828 3.5658,9.26042 1.04314,2.69214 2.89071,7.51417 4.1057,10.71563 1.215,3.20145 2.338361,6.15855 2.496351,6.57132 0.27446,0.71705 0.33729,0.74069 1.40959,0.53043 0.61728,-0.12104 1.71764,-0.22007 2.44524,-0.22007 z"
       id="path1" /></g></svg>
